# xmcd
#
# Track frame offsets: 
#        150
#        21743
#        38266
#        61641
#        83846
#        112061
#        132609
#        146957
#        168349
#        188895
#        213355
#        236976
#
# Disc length: 3411 seconds
#
# Revision: 1
# Processed by: cddbd v1.5.2PL0 Copyright (c) Steve Scherf et al.
# Submitted via: ExactAudioCopy v1.2
#
DISCID=b00d510c
DTITLE=Byther Smith - Smitty's Blues
DYEAR=2001
DGENRE=Blues
TTITLE0=Ought to Be  Ashamed
TTITLE1=Little Voice
TTITLE2=So Many Roads, So Many Trains
TTITLE3=She's a Good 'Un
TTITLE4=Five Long Years
TTITLE5=Your Daughter Don't Want Me No More
TTITLE6=Same Thing on My Mind
TTITLE7=You Don't Love Me No More
TTITLE8=Tramp
TTITLE9=Sell My Monkey
TTITLE10=Don't Hurt Me No More
TTITLE11=I Live Here
EXTD=
EXTT0=
EXTT1=
EXTT2=
EXTT3=
EXTT4=
EXTT5=
EXTT6=
EXTT7=
EXTT8=
EXTT9=
EXTT10=
EXTT11=
PLAYORDER=
